<?xml version="1.0" encoding="utf-8"?>
<svg width="30px" height="30px" viewBox="0 0 30 30" version="1.1" xmlns:xlink="http://www.w3.org/1999/xlink" xmlns="http://www.w3.org/2000/svg">
  <defs>
    <path d="M30 0L30 0L30 30L0 30L0 0L30 0Z" id="path_1" />
    <clipPath id="clip_1">
      <use xlink:href="#path_1" clip-rule="evenodd" fill-rule="evenodd" />
    </clipPath>
  </defs>
  <g id="Apple Logo">
    <path d="M30 0L30 0L30 30L0 30L0 0L30 0Z" id="Apple-Logo" fill="none" stroke="none" />
    <path d="M26.625 21.46C25.989 22.836 25.684 23.451 24.868 24.666C23.727 26.364 22.115 28.483 20.123 28.498C18.352 28.512 17.895 27.368 15.491 27.386C13.088 27.398 12.587 28.519 10.813 28.499C8.822 28.483 7.297 26.573 6.155 24.879C4.327 22.157 3.557 19.168 3.498 16.553C3.454 14.6 3.754 12.855 4.598 11.588C5.995 9.486 8.205 8.5 10.279 8.5C12.392 8.5 13.72 9.5 15.466 9.5C17.163 9.5 18.195 8.5 20.638 8.5C22.486 8.5 24.441 9.234 25.836 10.931C21.269 13.377 22.01 19.753 26.625 21.46L26.625 21.46Z" id="Shape" fill="black" stroke="none" clip-path="url(#clip_1)" />
    <path d="M10.86 29L10.809 29C8.614 28.981 7.016 27.048 5.743 25.16C4.041 22.627 3.067 19.576 3 16.565C2.951 14.334 3.349 12.566 4.183 11.312C5.56 9.238 7.838 8 10.279 8C11.461 8 12.424 8.296 13.273 8.558C14.012 8.785 14.709 9 15.466 9C16.157 9 16.737 8.811 17.407 8.593C18.259 8.315 19.226 8 20.638 8C22.821 8 24.856 8.952 26.223 10.613L26.61 11.084L26.073 11.372C24.178 12.387 23.133 14.234 23.276 16.313C23.423 18.45 24.773 20.242 26.798 20.992L27.305 21.18L27.078 21.671C26.431 23.072 26.108 23.717 25.283 24.946C23.943 26.941 22.283 28.983 20.127 28.999C20.127 28.999 20.127 28.999 20.126 28.999C19.185 28.999 18.575 28.726 17.985 28.462C17.354 28.179 16.7 27.887 15.55 27.887C14.314 27.893 13.639 28.186 12.986 28.47C12.387 28.729 11.766 28.999 10.86 29L10.86 29ZM10.279 9C8.175 9 6.207 10.071 5.016 11.865C4.297 12.946 3.955 14.52 4 16.542C4.063 19.364 4.977 22.226 6.572 24.6C7.699 26.272 9.086 27.984 10.819 27.998L10.861 28.498L10.861 28C11.559 28 12.037 27.792 12.59 27.552C13.301 27.243 14.107 26.894 15.491 26.887C15.491 26.887 15.492 26.887 15.492 26.887C16.916 26.887 17.702 27.239 18.395 27.549C18.934 27.79 19.4 27.999 20.093 27.999C21.821 27.986 23.329 26.062 24.454 24.388C25.147 23.357 25.457 22.78 25.953 21.722C23.832 20.738 22.441 18.736 22.279 16.382C22.122 14.107 23.152 12.067 25.057 10.814C23.9 9.654 22.32 9 20.638 9C19.385 9 18.537 9.276 17.717 9.543C16.997 9.778 16.316 10 15.466 10C14.559 10 13.756 9.753 12.979 9.514C12.159 9.261 11.311 9 10.279 9L10.279 9Z" id="Shape" fill="#788B9C" fill-rule="evenodd" stroke="none" clip-path="url(#clip_1)" />
    <g id="Group" transform="translate(14.064732 -0.019000083)" clip-path="url(#clip_1)">
      <path d="M5.03227 5.073C5.98427 3.89 6.69827 2.23 6.43527 0.529C4.88327 0.633 3.07527 1.583 2.01427 2.825C1.05227 3.958 0.25527 5.639 0.56627 7.267C2.26027 7.319 4.01427 6.342 5.03227 5.073L5.03227 5.073Z" id="Shape" fill="#000" stroke="none" />
      <path d="M0.69527 7.769C0.69527 7.769 0.69527 7.769 0.69527 7.769L0.15027 7.754L0.0752697 7.361C-0.21973 5.815 0.36327 3.999 1.63327 2.502C2.79927 1.136 4.71627 0.143 6.40227 0.03L6.86027 0L6.93027 0.453C7.18227 2.084 6.63227 3.883 5.42227 5.387C4.26127 6.833 2.40527 7.769 0.69527 7.769L0.69527 7.769ZM5.98727 1.087C4.69027 1.319 3.27027 2.123 2.39427 3.15C2.02227 3.588 0.893269 5.07 1.00327 6.756C2.31927 6.649 3.74827 5.874 4.64127 4.76C5.09027 4.203 6.05527 2.796 5.98727 1.087L5.98727 1.087Z" id="Shape" fill="#788B9C" fill-rule="evenodd" stroke="none" />
    </g>
  </g>
</svg>